<mxfile host="app.diagrams.net" agent="Mozilla/5.0 (Windows NT 10.0; Win64; x64) AppleWebKit/537.36 (KHTML, like Gecko) Chrome/127.0.0.0 Safari/537.36 OPR/113.0.0.0" version="24.7.12">
  <diagram name="Страница — 1" id="an5CoUuglC685Xo_gs4N">
    <mxGraphModel dx="1441" dy="1657" grid="1" gridSize="10" guides="1" tooltips="1" connect="1" arrows="1" fold="1" page="1" pageScale="1" pageWidth="1169" pageHeight="827" background="none" math="0" shadow="0">
      <root>
        <mxCell id="0" />
        <mxCell id="1" parent="0" />
        <mxCell id="e9L9qVhXZpTuU434PPp--3" value="&lt;span style=&quot;color: rgb(60, 64, 67); font-family: Roboto, Arial, sans-serif; font-size: 14px; letter-spacing: 0.2px; text-align: left;&quot;&gt;&lt;b&gt;&lt;i&gt;&quot;Я, как клиент банка, хочу иметь возможность заказать карту онлайн, чтобы начать ее использование до получения физического пластика и не посещать банк&quot;&lt;/i&gt;&lt;/b&gt;&lt;/span&gt;" style="text;html=1;align=center;verticalAlign=middle;whiteSpace=wrap;rounded=0;" vertex="1" parent="1">
          <mxGeometry x="255" y="-810" width="660" height="40" as="geometry" />
        </mxCell>
        <mxCell id="e9L9qVhXZpTuU434PPp--5" value="&lt;div style=&quot;box-sizing:border-box;width:100%;background:#e4e4e4;padding:2px;&quot;&gt;User(Пользователь)&lt;/div&gt;&lt;table style=&quot;width:100%;font-size:1em;&quot; cellpadding=&quot;2&quot; cellspacing=&quot;0&quot;&gt;&lt;tbody&gt;&lt;tr&gt;&lt;td&gt;PK&lt;/td&gt;&lt;td&gt;userID&lt;/td&gt;&lt;/tr&gt;&lt;tr&gt;&lt;td&gt;&lt;br&gt;&lt;/td&gt;&lt;td&gt;fullName&lt;/td&gt;&lt;/tr&gt;&lt;tr&gt;&lt;td&gt;&lt;/td&gt;&lt;td&gt;passportData&lt;br&gt;Age&lt;br&gt;phoneNumber&lt;br&gt;workPlace&lt;/td&gt;&lt;/tr&gt;&lt;/tbody&gt;&lt;/table&gt;" style="verticalAlign=top;align=left;overflow=fill;html=1;whiteSpace=wrap;" vertex="1" parent="1">
          <mxGeometry x="440" y="-473" width="180" height="120" as="geometry" />
        </mxCell>
        <mxCell id="e9L9qVhXZpTuU434PPp--6" value="&lt;div style=&quot;box-sizing:border-box;width:100%;background:#e4e4e4;padding:2px;&quot;&gt;Order(Заказ)&lt;/div&gt;&lt;table style=&quot;width:100%;font-size:1em;&quot; cellpadding=&quot;2&quot; cellspacing=&quot;0&quot;&gt;&lt;tbody&gt;&lt;tr&gt;&lt;td&gt;PK&lt;/td&gt;&lt;td&gt;orderID&lt;/td&gt;&lt;/tr&gt;&lt;tr&gt;&lt;td&gt;FK&lt;br&gt;FK&lt;/td&gt;&lt;td&gt;deliveryAdress&lt;br&gt;userID&lt;br&gt;&lt;/td&gt;&lt;/tr&gt;&lt;tr&gt;&lt;td&gt;&lt;br&gt;FK&lt;br&gt;&lt;/td&gt;&lt;td&gt;orderData&lt;br&gt;cardID&lt;br&gt;&lt;/td&gt;&lt;/tr&gt;&lt;/tbody&gt;&lt;/table&gt;" style="verticalAlign=top;align=left;overflow=fill;html=1;whiteSpace=wrap;" vertex="1" parent="1">
          <mxGeometry x="840" y="-680" width="180" height="120" as="geometry" />
        </mxCell>
        <mxCell id="e9L9qVhXZpTuU434PPp--7" value="&lt;div style=&quot;box-sizing:border-box;width:100%;background:#e4e4e4;padding:2px;&quot;&gt;Bank(Отделение Банка)&lt;/div&gt;&lt;table style=&quot;width:100%;font-size:1em;&quot; cellpadding=&quot;2&quot; cellspacing=&quot;0&quot;&gt;&lt;tbody&gt;&lt;tr&gt;&lt;td&gt;PK&lt;/td&gt;&lt;td&gt;bankID&lt;/td&gt;&lt;/tr&gt;&lt;tr&gt;&lt;td&gt;&lt;br&gt;&lt;/td&gt;&lt;td&gt;bankFullName&lt;/td&gt;&lt;/tr&gt;&lt;tr&gt;&lt;td&gt;&lt;/td&gt;&lt;td&gt;bankAdress&lt;/td&gt;&lt;/tr&gt;&lt;/tbody&gt;&lt;/table&gt;" style="verticalAlign=top;align=left;overflow=fill;html=1;whiteSpace=wrap;" vertex="1" parent="1">
          <mxGeometry x="90" y="-680" width="180" height="80" as="geometry" />
        </mxCell>
        <mxCell id="e9L9qVhXZpTuU434PPp--8" value="&lt;div style=&quot;box-sizing:border-box;width:100%;background:#e4e4e4;padding:2px;&quot;&gt;Password(Пароль)&lt;/div&gt;&lt;table style=&quot;width:100%;font-size:1em;&quot; cellpadding=&quot;2&quot; cellspacing=&quot;0&quot;&gt;&lt;tbody&gt;&lt;tr&gt;&lt;td&gt;PK&lt;/td&gt;&lt;td&gt;passID&lt;/td&gt;&lt;/tr&gt;&lt;tr&gt;&lt;td&gt;FK&lt;/td&gt;&lt;td&gt;userID&lt;/td&gt;&lt;/tr&gt;&lt;tr&gt;&lt;td&gt;&lt;/td&gt;&lt;td&gt;passValue&lt;/td&gt;&lt;/tr&gt;&lt;/tbody&gt;&lt;/table&gt;" style="verticalAlign=top;align=left;overflow=fill;html=1;whiteSpace=wrap;" vertex="1" parent="1">
          <mxGeometry x="90" y="-473" width="180" height="90" as="geometry" />
        </mxCell>
        <mxCell id="e9L9qVhXZpTuU434PPp--9" value="&lt;div style=&quot;box-sizing:border-box;width:100%;background:#e4e4e4;padding:2px;&quot;&gt;Card(Карта)&lt;/div&gt;&lt;table style=&quot;width:100%;font-size:1em;&quot; cellpadding=&quot;2&quot; cellspacing=&quot;0&quot;&gt;&lt;tbody&gt;&lt;tr&gt;&lt;td&gt;PK&lt;/td&gt;&lt;td&gt;cardID&lt;/td&gt;&lt;/tr&gt;&lt;tr&gt;&lt;td&gt;&lt;br&gt;&lt;/td&gt;&lt;td&gt;canBeVirtual&lt;/td&gt;&lt;/tr&gt;&lt;tr&gt;&lt;td&gt;&lt;/td&gt;&lt;td&gt;cardName&lt;br&gt;cashback&lt;br&gt;availableToOrder&lt;br&gt;cardExample(Фото)&lt;/td&gt;&lt;/tr&gt;&lt;/tbody&gt;&lt;/table&gt;" style="verticalAlign=top;align=left;overflow=fill;html=1;whiteSpace=wrap;" vertex="1" parent="1">
          <mxGeometry x="840" y="-470" width="180" height="120" as="geometry" />
        </mxCell>
        <mxCell id="e9L9qVhXZpTuU434PPp--10" value="&lt;div style=&quot;box-sizing:border-box;width:100%;background:#e4e4e4;padding:2px;&quot;&gt;Users_card(Карты пользователей)&lt;/div&gt;&lt;table style=&quot;width:100%;font-size:1em;&quot; cellpadding=&quot;2&quot; cellspacing=&quot;0&quot;&gt;&lt;tbody&gt;&lt;tr&gt;&lt;td&gt;FK&lt;br&gt;&lt;/td&gt;&lt;td&gt;cardID&lt;/td&gt;&lt;/tr&gt;&lt;tr&gt;&lt;td&gt;FK&lt;br&gt;&lt;/td&gt;&lt;td&gt;userID&lt;/td&gt;&lt;/tr&gt;&lt;tr&gt;&lt;td&gt;&lt;br&gt;&lt;/td&gt;&lt;td&gt;&lt;br&gt;&lt;/td&gt;&lt;/tr&gt;&lt;/tbody&gt;&lt;/table&gt;" style="verticalAlign=top;align=left;overflow=fill;html=1;whiteSpace=wrap;" vertex="1" parent="1">
          <mxGeometry x="440" y="-230" width="180" height="78" as="geometry" />
        </mxCell>
        <mxCell id="e9L9qVhXZpTuU434PPp--15" value="" style="endArrow=none;html=1;rounded=0;exitX=0.999;exitY=0.201;exitDx=0;exitDy=0;entryX=0;entryY=0.5;entryDx=0;entryDy=0;edgeStyle=orthogonalEdgeStyle;exitPerimeter=0;" edge="1" parent="1" source="e9L9qVhXZpTuU434PPp--5" target="e9L9qVhXZpTuU434PPp--6">
          <mxGeometry width="50" height="50" relative="1" as="geometry">
            <mxPoint x="470" y="-470" as="sourcePoint" />
            <mxPoint x="520" y="-520" as="targetPoint" />
          </mxGeometry>
        </mxCell>
        <mxCell id="e9L9qVhXZpTuU434PPp--19" value="" style="endArrow=none;html=1;rounded=0;exitX=1;exitY=0.5;exitDx=0;exitDy=0;entryX=0;entryY=0.25;entryDx=0;entryDy=0;edgeStyle=orthogonalEdgeStyle;" edge="1" parent="1" source="e9L9qVhXZpTuU434PPp--8">
          <mxGeometry width="50" height="50" relative="1" as="geometry">
            <mxPoint x="269.96" y="-413" as="sourcePoint" />
            <mxPoint x="439.96" y="-446" as="targetPoint" />
            <Array as="points">
              <mxPoint x="270" y="-430" />
              <mxPoint x="355" y="-430" />
              <mxPoint x="355" y="-450" />
              <mxPoint x="440" y="-450" />
            </Array>
          </mxGeometry>
        </mxCell>
        <mxCell id="e9L9qVhXZpTuU434PPp--21" value="" style="endArrow=none;html=1;rounded=0;edgeStyle=orthogonalEdgeStyle;exitX=1;exitY=0.25;exitDx=0;exitDy=0;entryX=-0.009;entryY=0.401;entryDx=0;entryDy=0;entryPerimeter=0;" edge="1" parent="1" source="e9L9qVhXZpTuU434PPp--7" target="e9L9qVhXZpTuU434PPp--6">
          <mxGeometry width="50" height="50" relative="1" as="geometry">
            <mxPoint x="480" y="-630" as="sourcePoint" />
            <mxPoint x="530" y="-680" as="targetPoint" />
          </mxGeometry>
        </mxCell>
        <mxCell id="e9L9qVhXZpTuU434PPp--22" value="" style="endArrow=none;html=1;rounded=0;entryX=1;entryY=0.75;entryDx=0;entryDy=0;exitX=1;exitY=0.25;exitDx=0;exitDy=0;edgeStyle=orthogonalEdgeStyle;" edge="1" parent="1" source="e9L9qVhXZpTuU434PPp--9" target="e9L9qVhXZpTuU434PPp--6">
          <mxGeometry width="50" height="50" relative="1" as="geometry">
            <mxPoint x="990" y="-500" as="sourcePoint" />
            <mxPoint x="1040" y="-550" as="targetPoint" />
            <Array as="points">
              <mxPoint x="1070" y="-440" />
              <mxPoint x="1070" y="-590" />
            </Array>
          </mxGeometry>
        </mxCell>
        <mxCell id="e9L9qVhXZpTuU434PPp--23" value="" style="endArrow=none;html=1;rounded=0;edgeStyle=orthogonalEdgeStyle;entryX=0;entryY=0.25;entryDx=0;entryDy=0;exitX=0;exitY=0.75;exitDx=0;exitDy=0;" edge="1" parent="1" source="e9L9qVhXZpTuU434PPp--10" target="e9L9qVhXZpTuU434PPp--5">
          <mxGeometry width="50" height="50" relative="1" as="geometry">
            <mxPoint x="440" y="-300" as="sourcePoint" />
            <mxPoint x="490" y="-350" as="targetPoint" />
            <Array as="points">
              <mxPoint x="390" y="-171" />
              <mxPoint x="390" y="-443" />
            </Array>
          </mxGeometry>
        </mxCell>
        <mxCell id="e9L9qVhXZpTuU434PPp--25" value="" style="endArrow=none;html=1;rounded=0;edgeStyle=orthogonalEdgeStyle;entryX=0;entryY=0.25;entryDx=0;entryDy=0;exitX=1;exitY=0.5;exitDx=0;exitDy=0;" edge="1" parent="1" source="e9L9qVhXZpTuU434PPp--10" target="e9L9qVhXZpTuU434PPp--9">
          <mxGeometry width="50" height="50" relative="1" as="geometry">
            <mxPoint x="680" y="-300" as="sourcePoint" />
            <mxPoint x="730" y="-350" as="targetPoint" />
            <Array as="points">
              <mxPoint x="760" y="-191" />
              <mxPoint x="760" y="-440" />
            </Array>
          </mxGeometry>
        </mxCell>
        <mxCell id="e9L9qVhXZpTuU434PPp--27" value="1" style="text;html=1;align=center;verticalAlign=middle;whiteSpace=wrap;rounded=0;" vertex="1" parent="1">
          <mxGeometry x="270" y="-673" width="40" height="10" as="geometry" />
        </mxCell>
        <mxCell id="e9L9qVhXZpTuU434PPp--30" value="&lt;div style=&quot;text-align: start; font-size: 16px;&quot;&gt;&lt;span style=&quot;background-color: initial; font-size: 16px;&quot;&gt;&lt;font style=&quot;font-size: 16px;&quot; face=&quot;Google Sans, Arial, sans-serif&quot;&gt;∞&lt;/font&gt;&lt;/span&gt;&lt;/div&gt;" style="text;html=1;align=center;verticalAlign=middle;whiteSpace=wrap;rounded=0;fillColor=none;fontSize=16;" vertex="1" parent="1">
          <mxGeometry x="810" y="-646" width="30" height="10" as="geometry" />
        </mxCell>
        <mxCell id="e9L9qVhXZpTuU434PPp--31" value="&lt;div style=&quot;text-align: start; font-size: 16px;&quot;&gt;&lt;span style=&quot;background-color: initial; font-size: 16px;&quot;&gt;&lt;font style=&quot;font-size: 16px;&quot; face=&quot;Google Sans, Arial, sans-serif&quot;&gt;∞&lt;/font&gt;&lt;/span&gt;&lt;/div&gt;" style="text;html=1;align=center;verticalAlign=middle;whiteSpace=wrap;rounded=0;fillColor=none;fontSize=16;" vertex="1" parent="1">
          <mxGeometry x="810" y="-619" width="30" height="10" as="geometry" />
        </mxCell>
        <mxCell id="e9L9qVhXZpTuU434PPp--32" value="1" style="text;html=1;align=center;verticalAlign=middle;whiteSpace=wrap;rounded=0;" vertex="1" parent="1">
          <mxGeometry x="620" y="-463" width="40" height="10" as="geometry" />
        </mxCell>
        <mxCell id="e9L9qVhXZpTuU434PPp--33" value="1" style="text;html=1;align=center;verticalAlign=middle;whiteSpace=wrap;rounded=0;" vertex="1" parent="1">
          <mxGeometry x="407" y="-464" width="40" height="10" as="geometry" />
        </mxCell>
        <mxCell id="e9L9qVhXZpTuU434PPp--34" value="1" style="text;html=1;align=center;verticalAlign=middle;whiteSpace=wrap;rounded=0;" vertex="1" parent="1">
          <mxGeometry x="260" y="-443" width="40" height="10" as="geometry" />
        </mxCell>
        <mxCell id="e9L9qVhXZpTuU434PPp--35" value="1" style="text;html=1;align=center;verticalAlign=middle;whiteSpace=wrap;rounded=0;" vertex="1" parent="1">
          <mxGeometry x="410" y="-440" width="40" height="10" as="geometry" />
        </mxCell>
        <mxCell id="e9L9qVhXZpTuU434PPp--37" value="&lt;div style=&quot;text-align: start; font-size: 16px;&quot;&gt;&lt;span style=&quot;background-color: initial; font-size: 16px;&quot;&gt;&lt;font style=&quot;font-size: 16px;&quot; face=&quot;Google Sans, Arial, sans-serif&quot;&gt;∞&lt;/font&gt;&lt;/span&gt;&lt;/div&gt;" style="text;html=1;align=center;verticalAlign=middle;whiteSpace=wrap;rounded=0;fillColor=none;fontSize=16;" vertex="1" parent="1">
          <mxGeometry x="410" y="-185" width="20" height="10" as="geometry" />
        </mxCell>
        <mxCell id="e9L9qVhXZpTuU434PPp--38" value="&lt;div style=&quot;text-align: start; font-size: 16px;&quot;&gt;&lt;span style=&quot;background-color: initial; font-size: 16px;&quot;&gt;&lt;font style=&quot;font-size: 16px;&quot; face=&quot;Google Sans, Arial, sans-serif&quot;&gt;∞&lt;/font&gt;&lt;/span&gt;&lt;/div&gt;" style="text;html=1;align=center;verticalAlign=middle;whiteSpace=wrap;rounded=0;fillColor=none;fontSize=16;" vertex="1" parent="1">
          <mxGeometry x="630" y="-204" width="20" height="10" as="geometry" />
        </mxCell>
        <mxCell id="e9L9qVhXZpTuU434PPp--39" value="1" style="text;html=1;align=center;verticalAlign=middle;whiteSpace=wrap;rounded=0;" vertex="1" parent="1">
          <mxGeometry x="805" y="-437" width="40" height="10" as="geometry" />
        </mxCell>
        <mxCell id="e9L9qVhXZpTuU434PPp--40" value="1" style="text;html=1;align=center;verticalAlign=middle;whiteSpace=wrap;rounded=0;" vertex="1" parent="1">
          <mxGeometry x="1020" y="-453" width="40" height="10" as="geometry" />
        </mxCell>
        <mxCell id="e9L9qVhXZpTuU434PPp--41" value="&lt;div style=&quot;text-align: start; font-size: 16px;&quot;&gt;&lt;span style=&quot;background-color: initial; font-size: 16px;&quot;&gt;&lt;font style=&quot;font-size: 16px;&quot; face=&quot;Google Sans, Arial, sans-serif&quot;&gt;∞&lt;/font&gt;&lt;/span&gt;&lt;/div&gt;" style="text;html=1;align=center;verticalAlign=middle;whiteSpace=wrap;rounded=0;fillColor=none;fontSize=16;" vertex="1" parent="1">
          <mxGeometry x="1020" y="-602" width="30" height="10" as="geometry" />
        </mxCell>
      </root>
    </mxGraphModel>
  </diagram>
</mxfile>
